<?xml version="1.0" encoding="UTF-8" standalone="no"?>
<!-- Created with Inkscape (http://www.inkscape.org/) -->

<svg
   width="10cm"
   height="10cm"
   viewBox="0 0 100 100"
   version="1.1"
   id="svg1"
   inkscape:version="1.3 (0e150ed6c4, 2023-07-21)"
   sodipodi:docname="icono.svg"
   xmlns:inkscape="http://www.inkscape.org/namespaces/inkscape"
   xmlns:sodipodi="http://sodipodi.sourceforge.net/DTD/sodipodi-0.dtd"
   xmlns="http://www.w3.org/2000/svg"
   xmlns:svg="http://www.w3.org/2000/svg">
  <sodipodi:namedview
     id="namedview1"
     pagecolor="#ffffff"
     bordercolor="#000000"
     borderopacity="0.25"
     inkscape:showpageshadow="2"
     inkscape:pageopacity="0.0"
     inkscape:pagecheckerboard="0"
     inkscape:deskcolor="#d1d1d1"
     inkscape:document-units="mm"
     inkscape:zoom="1.0356019"
     inkscape:cx="68.559162"
     inkscape:cy="76.284138"
     inkscape:window-width="1920"
     inkscape:window-height="1018"
     inkscape:window-x="-6"
     inkscape:window-y="-6"
     inkscape:window-maximized="1"
     inkscape:current-layer="layer1" />
  <defs
     id="defs1" />
  <g
     inkscape:label="Layer 1"
     inkscape:groupmode="layer"
     id="layer1">
    <g
       id="g9"
       transform="matrix(0.90249801,0,0,0.90249801,3.3218887,-18.685806)">
      <path
         id="path7-5"
         style="display:inline;fill:#ffffff;stroke:#000000;stroke-width:0.482812;stroke-linecap:round;paint-order:stroke fill markers"
         d="m 68.057493,39.976295 c 0.01765,-2.634715 0.103886,-6.423154 0.191617,-8.418755 l 0.159509,-3.628366 7.664625,7.951483 c 4.215545,4.373316 7.814857,8.161755 7.998473,8.418755 0.321456,0.449932 0.02988,0.467273 -7.856241,0.467273 H 68.025389 Z M 22.804104,71.976101 V 27.393535 h 22.373721 22.373722 l -0.184518,9.069808 -0.184515,9.069806 h 8.852524 8.852524 v 35.51276 35.512751 H 53.845834 22.804104 Z M 67.926046,27.076588 67.54843,45.248909 85.356933,45.121774 M 22.310169,27.076588 v 89.786492 h 63.04927 l 0.0113,-71.890525 -17.237135,-17.905746 z" />
      <path
         style="display:inline;fill:#800080;stroke:#000000;stroke-width:1.29033;stroke-linecap:round;paint-order:stroke fill markers"
         d="M 87.398127,271.75355 V 104.46807 h 83.388023 83.38803 l -0.43197,18.60625 c -0.23758,10.23343 -0.62146,25.75001 -0.85307,34.48129 l -0.4211,15.87505 h 33.54068 33.54068 V 306.23484 439.03903 H 203.47376 87.398127 Z"
         id="path9"
         transform="scale(0.26458333)" />
    </g>
    <g
       id="g11"
       transform="matrix(0.90249801,0,0,0.90249801,1.8891732,-14.865231)">
      <path
         id="path10"
         style="display:inline;fill:#ffffff;stroke:#000000;stroke-width:0.482812;stroke-linecap:round;paint-order:stroke fill markers"
         d="m 68.057493,39.976295 c 0.01765,-2.634715 0.103886,-6.423154 0.191617,-8.418755 l 0.159509,-3.628366 7.664625,7.951483 c 4.215545,4.373316 7.814857,8.161755 7.998473,8.418755 0.321456,0.449932 0.02988,0.467273 -7.856241,0.467273 H 68.025389 Z M 22.804104,71.976101 V 27.393535 h 22.373721 22.373722 l -0.184518,9.069808 -0.184515,9.069806 h 8.852524 8.852524 v 35.51276 35.512751 H 53.845834 22.804104 Z M 67.926046,27.076588 67.54843,45.248909 85.356933,45.121774 M 22.310169,27.076588 v 89.786492 h 63.04927 l 0.0113,-71.890525 -17.237135,-17.905746 z" />
      <path
         style="display:inline;fill:#0000ff;stroke:#000000;stroke-width:1.29033;stroke-linecap:round;paint-order:stroke fill markers"
         d="M 87.398127,271.75355 V 104.46807 h 83.388023 83.38803 l -0.43197,18.60625 c -0.23758,10.23343 -0.62146,25.75001 -0.85307,34.48129 l -0.4211,15.87505 h 33.54068 33.54068 V 306.23484 439.03903 H 203.47376 87.398127 Z"
         id="path11"
         transform="scale(0.26458333)" />
    </g>
    <g
       id="g13"
       transform="matrix(0.90249801,0,0,0.90249801,0.06103815,-11.18585)">
      <path
         id="path12"
         style="display:inline;fill:#ffffff;stroke:#000000;stroke-width:0.482812;stroke-linecap:round;paint-order:stroke fill markers"
         d="m 68.057493,39.976295 c 0.01765,-2.634715 0.103886,-6.423154 0.191617,-8.418755 l 0.159509,-3.628366 7.664625,7.951483 c 4.215545,4.373316 7.814857,8.161755 7.998473,8.418755 0.321456,0.449932 0.02988,0.467273 -7.856241,0.467273 H 68.025389 Z M 22.804104,71.976101 V 27.393535 h 22.373721 22.373722 l -0.184518,9.069808 -0.184515,9.069806 h 8.852524 8.852524 v 35.51276 35.512751 H 53.845834 22.804104 Z M 67.926046,27.076588 67.54843,45.248909 85.356933,45.121774 M 22.310169,27.076588 v 89.786492 h 63.04927 l 0.0113,-71.890525 -17.237135,-17.905746 z" />
      <path
         style="display:inline;fill:#ffff00;stroke:#000000;stroke-width:1.29033;stroke-linecap:round;paint-order:stroke fill markers"
         d="M 87.398127,271.75355 V 104.46807 h 83.388023 83.38803 l -0.43197,18.60625 c -0.23758,10.23343 -0.62146,25.75001 -0.85307,34.48129 l -0.4211,15.87505 h 33.54068 33.54068 V 306.23484 439.03903 H 203.47376 87.398127 Z"
         id="path13"
         transform="scale(0.26458333)" />
    </g>
    <rect
       style="fill:#ffffff;stroke:#ffffff;stroke-width:0.339891;stroke-linecap:round;paint-order:stroke fill markers"
       id="rect13"
       width="1.8846486"
       height="69.652702"
       x="23.680283"
       y="19.081509" />
    <path
       style="display:inline;fill:#000000;stroke:#000000;stroke-width:0.451248;stroke-linecap:round;paint-order:stroke fill markers"
       d="M 20.015006,26.460667 C 0.27907885,32.389128 26.396002,47.194612 47.263218,46.502881 68.130432,45.811149 87.8444,54.725213 82.886993,65.44701 l -0.28822,-4.842092 -2.034148,1.50914 -0.04542,10.443963 2.713657,1.679701 -0.05764,-5.418538 c 0,0 10.763427,-27.156754 -33.145076,-28.541881 C 13.483692,39.124418 20.007413,28.998812 20.007413,28.998812"
       id="path3"
       sodipodi:nodetypes="csccccccsc"
       inkscape:label="flecha" />
    <text
       xml:space="preserve"
       style="font-style:normal;font-variant:normal;font-weight:normal;font-stretch:normal;font-size:26.4583px;line-height:0.6;font-family:sans-serif;-inkscape-font-specification:sans-serif;fill:#000000;stroke:#000000;stroke-width:0.499999;stroke-linecap:round;paint-order:stroke fill markers"
       x="26.570698"
       y="75.113319"
       id="text13"><tspan
         sodipodi:role="line"
         id="tspan13"
         style="font-style:normal;font-variant:normal;font-weight:normal;font-stretch:normal;font-size:26.4583px;font-family:sans-serif;-inkscape-font-specification:sans-serif;stroke-width:0.5"
         x="26.570698"
         y="75.113319">PDF</tspan></text>
    <rect
       style="fill:#ffffff;stroke:#ffffff;stroke-width:0.264673;stroke-linecap:round;paint-order:stroke fill markers"
       id="rect14"
       width="0.29919785"
       height="17.544603"
       x="29.518887"
       y="56.47282" />
    <rect
       style="fill:#ffffff;stroke:#ffffff;stroke-width:0.264673;stroke-linecap:round;paint-order:stroke fill markers"
       id="rect14-0"
       width="0.29919785"
       height="17.544603"
       x="45.651573"
       y="57.081829" />
    <rect
       style="fill:#ffffff;stroke:#ffffff;stroke-width:0.264673;stroke-linecap:round;paint-order:stroke fill markers"
       id="rect14-0-3"
       width="0.29919785"
       height="17.544603"
       x="64.784042"
       y="56.762264" />
  </g>
</svg>
